<svg width="198" height="68" viewBox="0 0 198 68" fill="none" xmlns="http://www.w3.org/2000/svg">
<path d="M1.88 45.2C2.33333 45.4933 2.89333 45.7733 3.56 46.04C4.22667 46.3067 4.94667 46.5467 5.72 46.76C6.49333 46.9733 7.24 47.1467 7.96 47.28C8.70667 47.44 9.36 47.52 9.92 47.52C12.1067 47.52 13.9467 47.1867 15.44 46.52C16.9333 45.8533 18.08 44.9733 18.88 43.88C19.68 42.76 20.08 41.48 20.08 40.04C20.08 38.8667 19.84 37.8533 19.36 37C18.88 36.1467 18.24 35.3867 17.44 34.72C16.64 34.0267 15.7467 33.4 14.76 32.84C13.8 32.2533 12.84 31.68 11.88 31.12C11.0267 30.56 10.2 30.0667 9.4 29.64C8.6 29.1867 7.96 28.7067 7.48 28.2C7 27.6933 6.76 27.1067 6.76 26.44C6.76 25.5067 7.14667 24.8133 7.92 24.36C8.69333 23.9067 9.66667 23.68 10.84 23.68C11.6133 23.68 12.3333 23.7733 13 23.96C13.6933 24.12 14.3467 24.3333 14.96 24.6C15.5733 24.84 16.1467 25.0933 16.68 25.36L18.44 21.2C17.4 20.6933 16.2 20.2267 14.84 19.8C13.48 19.3733 12.12 19.16 10.76 19.16C8.78667 19.16 7.09333 19.48 5.68 20.12C4.29333 20.76 3.22667 21.6267 2.48 22.72C1.76 23.8133 1.4 25.0533 1.4 26.44C1.4 27.48 1.64 28.44 2.12 29.32C2.6 30.1733 3.24 30.96 4.04 31.68C4.84 32.4 5.70667 33.0667 6.64 33.68C7.6 34.2933 8.56 34.8933 9.52 35.48C10.3467 35.96 11.16 36.44 11.96 36.92C12.76 37.3733 13.4133 37.84 13.92 38.32C14.4533 38.8 14.72 39.3467 14.72 39.96C14.72 40.6 14.5333 41.1467 14.16 41.6C13.8133 42.0267 13.28 42.3467 12.56 42.56C11.84 42.7733 10.9333 42.88 9.84 42.88C9.06667 42.88 8.25333 42.7867 7.4 42.6C6.57333 42.3867 5.77333 42.1333 5 41.84C4.25333 41.5467 3.6 41.2667 3.04 41L1.88 45.2ZM29.6538 47V37.52H32.6538C34.0938 37.52 35.4671 37.3467 36.7738 37C38.1071 36.6267 39.2938 36.08 40.3338 35.36C41.4004 34.6133 42.2404 33.6667 42.8538 32.52C43.4671 31.3733 43.7738 30.04 43.7738 28.52C43.7738 26.44 43.2804 24.76 42.2938 23.48C41.3338 22.2 40.0404 21.2667 38.4138 20.68C36.7871 20.0933 34.9738 19.8 32.9738 19.8H24.4938V47H29.6538ZM32.8138 24.12C33.9871 24.12 34.9738 24.2667 35.7738 24.56C36.5738 24.8533 37.1871 25.3467 37.6138 26.04C38.0671 26.7333 38.2938 27.6667 38.2938 28.84C38.2404 29.8533 37.9871 30.6933 37.5338 31.36C37.0804 32 36.4538 32.48 35.6538 32.8C34.8804 33.0933 33.9738 33.24 32.9338 33.24H29.6538V24.12H32.8138ZM61.4856 36.36H54.2856L57.8456 26.92L61.4856 36.36ZM55.7656 19.8L45.1656 47H50.3656L52.7656 40.6H63.0856L65.5256 47.4L70.7256 46.68L60.1656 19.8H55.7656ZM84.8528 47C87.5461 46.9467 89.8128 46.3733 91.6528 45.28C93.5195 44.16 94.9328 42.5867 95.8928 40.56C96.8795 38.5067 97.3728 36.0667 97.3728 33.24C97.3728 30.6267 96.9061 28.32 95.9728 26.32C95.0661 24.2933 93.6928 22.7067 91.8528 21.56C90.0128 20.3867 87.6795 19.8 84.8528 19.8H74.5328V47H84.8528ZM85.0528 24.2C86.6528 24.2 87.9595 24.56 88.9728 25.28C90.0128 26 90.7728 27.04 91.2528 28.4C91.7328 29.7333 91.9728 31.3467 91.9728 33.24C91.9728 35.48 91.6795 37.2933 91.0928 38.68C90.5061 40.0667 89.6661 41.08 88.5728 41.72C87.5061 42.3333 86.2261 42.64 84.7328 42.64H79.6928V24.2H85.0528ZM113.509 47.56C110.682 47.56 108.269 46.9333 106.269 45.68C104.296 44.4267 102.789 42.7333 101.749 40.6C100.709 38.4667 100.189 36.1067 100.189 33.52C100.189 30.72 100.749 28.2533 101.869 26.12C102.989 23.9867 104.549 22.3067 106.549 21.08C108.549 19.8533 110.869 19.2133 113.509 19.16C116.362 19.16 118.776 19.8 120.749 21.08C122.749 22.3333 124.256 24.0133 125.269 26.12C126.309 28.2267 126.829 30.5867 126.829 33.2C126.829 36.0267 126.269 38.5067 125.149 40.64C124.029 42.7733 122.482 44.4533 120.509 45.68C118.536 46.88 116.202 47.5067 113.509 47.56ZM113.509 43.2C114.976 43.2 116.296 42.84 117.469 42.12C118.669 41.3733 119.629 40.2667 120.349 38.8C121.096 37.3333 121.469 35.48 121.469 33.24C121.469 31.3467 121.149 29.68 120.509 28.24C119.896 26.8 118.989 25.6667 117.789 24.84C116.616 23.9867 115.216 23.56 113.589 23.56C112.176 23.56 110.856 23.9733 109.629 24.8C108.402 25.6267 107.416 26.7733 106.669 28.24C105.949 29.7067 105.589 31.4533 105.589 33.48C105.589 35.3733 105.909 37.0533 106.549 38.52C107.189 39.9867 108.096 41.1333 109.269 41.96C110.469 42.7867 111.882 43.2 113.509 43.2ZM145.361 38.48L150.481 31.32V47H155.681V19.8H152.521L144.161 32.36L134.921 19.8H131.681V47H136.841V30.4L143.361 38.72L145.361 38.48ZM175.783 36.36H168.583L172.143 26.92L175.783 36.36ZM170.063 19.8L159.463 47H164.663L167.063 40.6H177.383L179.823 47.4L185.023 46.68L174.463 19.8H170.063Z" fill="url(#paint0_linear_837_264)"/>
<path d="M180.231 20.4502C180.25 20.4277 180.074 20.3121 180.008 20.2543C179.701 19.984 179.599 19.6342 179.61 19.2422C179.63 18.5373 179.888 17.4671 180.751 17.4211C181.931 17.3582 183.465 18.104 183.007 19.504C182.821 20.0734 182.383 20.4166 181.819 20.6115C181.374 20.7656 180.535 20.4269 180.245 20.6462" stroke="#328681" stroke-linecap="round"/>
<path d="M183.275 15.3508C183.013 15.1203 183.026 15.1014 182.631 14.967C182.078 14.779 181.739 14.1349 181.337 13.7157C180.289 12.6256 179.819 11.495 180.03 10.0049C180.242 8.51224 180.994 6.95025 181.974 5.82567C184.164 3.31 188.005 2.89264 190.847 4.78957C192.746 6.05698 194.403 7.94135 194.574 10.2492C194.698 11.9223 194.607 14.2381 193.009 15.2147C191.713 16.0068 189.701 16.1699 188.198 16.1108C187.16 16.07 186.096 16.077 185.1 15.6745C184.578 15.4636 183.485 14.8815 182.973 15.2685" stroke="#328681" stroke-linecap="round"/>
<path d="M189.83 10.3754C189.552 10.131 189.49 9.85086 189.226 9.59745C188.058 8.47713 186.878 8.36543 185.429 7.94808C184.411 7.65493 183.671 7.56696 182.816 8.2196C182.233 8.66516 181.73 9.42271 181.787 10.1924C181.88 11.4485 183.688 12.1164 184.698 12.0626C186.36 11.974 187.879 11.1698 189.433 10.6652C190.462 10.3312 191.545 9.99344 192.619 9.8589C193.682 9.72568 193.02 10.7024 192.917 11.3683C192.85 11.797 192.539 13.0083 192.091 12.5118C191.505 11.8627 190.855 10.8753 189.932 10.742" stroke="#328681" stroke-linecap="round"/>
<path d="M184.05 10.0302C183.558 10.0236 183.755 9.5209 183.948 9.21279C184.025 9.09047 184.447 9.20598 184.468 9.31903C184.501 9.49736 184.617 9.60632 184.575 9.80534C184.507 10.1332 184.172 10.0114 183.959 10.1334" stroke="#328681" stroke-linecap="round"/>
<path d="M28.702 63.571C28.8233 63.649 28.9793 63.727 29.17 63.805C29.3607 63.8743 29.573 63.935 29.807 63.987C30.041 64.039 30.2707 64.0823 30.496 64.117C30.73 64.1517 30.938 64.169 31.12 64.169C31.7873 64.169 32.3507 64.0693 32.81 63.87C33.278 63.6707 33.6333 63.3977 33.876 63.051C34.1273 62.7043 34.253 62.3057 34.253 61.855C34.253 61.5343 34.201 61.2527 34.097 61.01C33.993 60.7587 33.8413 60.5333 33.642 60.334C33.4427 60.1347 33.2 59.9483 32.914 59.775C32.628 59.6017 32.2943 59.4327 31.913 59.268C31.4017 59.0167 30.9683 58.7957 30.613 58.605C30.2577 58.4057 29.989 58.1933 29.807 57.968C29.6337 57.7427 29.547 57.474 29.547 57.162C29.547 56.746 29.7203 56.421 30.067 56.187C30.4223 55.953 30.8773 55.836 31.432 55.836C31.7267 55.836 31.9823 55.862 32.199 55.914C32.4243 55.9573 32.6237 56.0137 32.797 56.083C32.979 56.1523 33.1437 56.2217 33.291 56.291L33.642 55.498C33.3647 55.3593 33.0267 55.2337 32.628 55.121C32.2293 55.0083 31.8133 54.952 31.38 54.952C30.7993 54.952 30.2967 55.0517 29.872 55.251C29.456 55.4503 29.131 55.7147 28.897 56.044C28.6717 56.3733 28.559 56.7503 28.559 57.175C28.559 57.4783 28.6067 57.7557 28.702 58.007C28.806 58.2583 28.9533 58.4923 29.144 58.709C29.3433 58.917 29.586 59.112 29.872 59.294C30.1667 59.4673 30.5047 59.6407 30.886 59.814C31.3973 60.022 31.8263 60.2257 32.173 60.425C32.5197 60.6157 32.7797 60.8237 32.953 61.049C33.135 61.2743 33.226 61.5473 33.226 61.868C33.226 62.1367 33.1437 62.3837 32.979 62.609C32.823 62.8257 32.589 62.9947 32.277 63.116C31.965 63.2373 31.575 63.298 31.107 63.298C30.8383 63.298 30.5653 63.272 30.288 63.22C30.0107 63.1593 29.755 63.0857 29.521 62.999C29.2957 62.9123 29.1007 62.8343 28.936 62.765L28.702 63.571ZM36.576 66.704V58.514L36.173 57.695H35.562V66.847L36.576 66.704ZM36.264 59.333C36.5154 59.0383 36.7754 58.8087 37.044 58.644C37.3214 58.4793 37.6637 58.397 38.071 58.397C38.5044 58.397 38.864 58.5053 39.15 58.722C39.4447 58.93 39.6614 59.2203 39.8 59.593C39.9387 59.9657 40.008 60.3947 40.008 60.88C40.008 61.3307 39.9344 61.738 39.787 62.102C39.6397 62.466 39.4187 62.7563 39.124 62.973C38.838 63.1897 38.4784 63.298 38.045 63.298C37.6377 63.298 37.2954 63.22 37.018 63.064C36.7407 62.8993 36.4807 62.6827 36.238 62.414L35.926 63.116C36.108 63.3327 36.316 63.519 36.55 63.675C36.7927 63.831 37.0397 63.9523 37.291 64.039C37.551 64.1257 37.7937 64.169 38.019 64.169C38.6517 64.169 39.1934 64.0303 39.644 63.753C40.0947 63.467 40.4414 63.077 40.684 62.583C40.9354 62.0803 41.061 61.5083 41.061 60.867C41.061 60.1997 40.944 59.619 40.71 59.125C40.476 58.6223 40.1337 58.2323 39.683 57.955C39.2324 57.669 38.6907 57.526 38.058 57.526C37.8414 57.526 37.603 57.565 37.343 57.643C37.083 57.721 36.8317 57.8423 36.589 58.007C36.3464 58.163 36.134 58.358 35.952 58.592L36.264 59.333ZM43.0814 62.206C43.0814 61.8767 43.1898 61.5907 43.4064 61.348C43.6318 61.0967 43.9568 60.971 44.3814 60.971H46.0324V62.414C45.8158 62.6653 45.5558 62.882 45.2524 63.064C44.9491 63.246 44.6154 63.337 44.2514 63.337C43.9828 63.337 43.7618 63.2807 43.5884 63.168C43.4151 63.0553 43.2851 62.9123 43.1984 62.739C43.1204 62.557 43.0814 62.3793 43.0814 62.206ZM42.8344 58.852C43.0684 58.7567 43.3241 58.6613 43.6014 58.566C43.8874 58.4707 44.2341 58.423 44.6414 58.423C45.1441 58.423 45.4994 58.566 45.7074 58.852C45.9241 59.138 46.0324 59.4977 46.0324 59.931V60.282H44.4074C43.7314 60.282 43.1811 60.451 42.7564 60.789C42.3318 61.1183 42.1194 61.5907 42.1194 62.206C42.1194 62.7607 42.2971 63.2243 42.6524 63.597C43.0078 63.9697 43.5538 64.156 44.2904 64.156C44.6371 64.156 44.9838 64.0737 45.3304 63.909C45.6858 63.7443 45.9631 63.5623 46.1624 63.363L46.2924 64H47.0724V59.658C47.0724 59.242 46.9684 58.8737 46.7604 58.553C46.5524 58.2323 46.2621 57.981 45.8894 57.799C45.5254 57.617 45.1008 57.526 44.6154 57.526C44.4421 57.526 44.2211 57.552 43.9524 57.604C43.6838 57.6473 43.4194 57.7123 43.1594 57.799C42.9081 57.877 42.7001 57.9723 42.5354 58.085L42.8344 58.852ZM51.1321 57.799H49.9881V55.914L48.9481 56.2V57.799H48.0381L48.0511 58.579H48.9481V62.362C48.9481 62.7607 49.0217 63.0943 49.1691 63.363C49.3164 63.6317 49.5244 63.8397 49.7931 63.987C50.0617 64.1257 50.3737 64.195 50.7291 64.195C50.8504 64.195 50.9717 64.182 51.0931 64.156C51.2144 64.1387 51.3271 64.1127 51.4311 64.078C51.5351 64.0433 51.6217 64.0087 51.6911 63.974L51.4441 63.168C51.3834 63.194 51.2967 63.2243 51.1841 63.259C51.0801 63.285 50.9761 63.298 50.8721 63.298C50.5601 63.298 50.3347 63.1983 50.1961 62.999C50.0574 62.7997 49.9881 62.5397 49.9881 62.219V58.579H51.4571L51.1321 57.799ZM53.8531 64V57.695H52.8131V64H53.8531ZM53.3201 56.447C53.5108 56.447 53.6755 56.382 53.8141 56.252C53.9528 56.1133 54.0221 55.9443 54.0221 55.745C54.0221 55.5457 53.9485 55.381 53.8011 55.251C53.6625 55.1123 53.4978 55.043 53.3071 55.043C53.1078 55.043 52.9431 55.1123 52.8131 55.251C52.6831 55.381 52.6181 55.5457 52.6181 55.745C52.6181 55.9443 52.6831 56.1133 52.8131 56.252C52.9431 56.382 53.1121 56.447 53.3201 56.447ZM56.2592 62.206C56.2592 61.8767 56.3675 61.5907 56.5842 61.348C56.8095 61.0967 57.1345 60.971 57.5592 60.971H59.2102V62.414C58.9935 62.6653 58.7335 62.882 58.4302 63.064C58.1268 63.246 57.7932 63.337 57.4292 63.337C57.1605 63.337 56.9395 63.2807 56.7662 63.168C56.5928 63.0553 56.4628 62.9123 56.3762 62.739C56.2982 62.557 56.2592 62.3793 56.2592 62.206ZM56.0122 58.852C56.2462 58.7567 56.5018 58.6613 56.7792 58.566C57.0652 58.4707 57.4118 58.423 57.8192 58.423C58.3218 58.423 58.6772 58.566 58.8852 58.852C59.1018 59.138 59.2102 59.4977 59.2102 59.931V60.282H57.5852C56.9092 60.282 56.3588 60.451 55.9342 60.789C55.5095 61.1183 55.2972 61.5907 55.2972 62.206C55.2972 62.7607 55.4748 63.2243 55.8302 63.597C56.1855 63.9697 56.7315 64.156 57.4682 64.156C57.8148 64.156 58.1615 64.0737 58.5082 63.909C58.8635 63.7443 59.1408 63.5623 59.3402 63.363L59.4702 64H60.2502V59.658C60.2502 59.242 60.1462 58.8737 59.9382 58.553C59.7302 58.2323 59.4398 57.981 59.0672 57.799C58.7032 57.617 58.2785 57.526 57.7932 57.526C57.6198 57.526 57.3988 57.552 57.1302 57.604C56.8615 57.6473 56.5972 57.7123 56.3372 57.799C56.0858 57.877 55.8778 57.9723 55.7132 58.085L56.0122 58.852ZM62.9708 64V54.822L61.9568 54.965V64H62.9708ZM71.1612 64C72.0279 64 72.7516 63.805 73.3322 63.415C73.9216 63.0163 74.3679 62.479 74.6712 61.803C74.9746 61.127 75.1262 60.3687 75.1262 59.528C75.1262 58.7047 74.9919 57.9637 74.7232 57.305C74.4546 56.6463 74.0386 56.1263 73.4752 55.745C72.9119 55.355 72.1709 55.16 71.2522 55.16H68.1582V64H71.1612ZM71.2912 56.044C71.9326 56.044 72.4569 56.1957 72.8642 56.499C73.2802 56.8023 73.5879 57.2183 73.7872 57.747C73.9952 58.267 74.0992 58.865 74.0992 59.541C74.0992 60.2863 73.9736 60.9277 73.7222 61.465C73.4796 62.0023 73.1416 62.4183 72.7082 62.713C72.2749 62.999 71.7636 63.142 71.1742 63.142H69.1722V56.044H71.2912ZM79.1029 64.169C78.4789 64.1777 77.9416 64.039 77.4909 63.753C77.0402 63.4583 76.6936 63.064 76.4509 62.57C76.2169 62.0673 76.0999 61.4867 76.0999 60.828C76.1086 60.1867 76.2342 59.619 76.4769 59.125C76.7282 58.631 77.0836 58.241 77.5429 57.955C78.0109 57.669 78.5612 57.526 79.1939 57.526C79.8266 57.526 80.3682 57.6647 80.8189 57.942C81.2696 58.2193 81.6162 58.605 81.8589 59.099C82.1016 59.593 82.2229 60.1823 82.2229 60.867C82.2229 61.5083 82.0929 62.076 81.8329 62.57C81.5816 63.064 81.2219 63.454 80.7539 63.74C80.2946 64.026 79.7442 64.169 79.1029 64.169ZM79.1289 63.298C79.5622 63.298 79.9306 63.1897 80.2339 62.973C80.5372 62.7563 80.7669 62.466 80.9229 62.102C81.0876 61.738 81.1699 61.3307 81.1699 60.88C81.1699 60.4033 81.0919 59.9787 80.9359 59.606C80.7886 59.2333 80.5676 58.9387 80.2729 58.722C79.9869 58.5053 79.6229 58.397 79.1809 58.397C78.7562 58.397 78.3922 58.5053 78.0889 58.722C77.7856 58.9387 77.5516 59.229 77.3869 59.593C77.2309 59.957 77.1486 60.3643 77.1399 60.815C77.1399 61.283 77.2136 61.7077 77.3609 62.089C77.5082 62.4617 77.7292 62.7563 78.0239 62.973C78.3272 63.1897 78.6956 63.298 79.1289 63.298ZM84.4736 64V59.528C84.6816 59.3113 84.9026 59.1207 85.1366 58.956C85.3793 58.7827 85.6176 58.644 85.8516 58.54C86.0856 58.436 86.298 58.384 86.4886 58.384C86.766 58.384 86.9783 58.449 87.1256 58.579C87.273 58.7003 87.377 58.8737 87.4376 59.099C87.4983 59.3157 87.5286 59.5713 87.5286 59.866V64H88.5556V59.723C88.5556 59.2983 88.4906 58.9213 88.3606 58.592C88.2306 58.254 88.027 57.9897 87.7496 57.799C87.4723 57.5997 87.1083 57.5 86.6576 57.5C86.415 57.5 86.155 57.5477 85.8776 57.643C85.6003 57.7383 85.3316 57.8683 85.0716 58.033C84.8203 58.1977 84.595 58.384 84.3956 58.592L84.2136 57.695H83.4596V64H84.4736ZM88.4386 59.528C88.6466 59.3113 88.8676 59.1207 89.1016 58.956C89.3356 58.7827 89.5696 58.644 89.8036 58.54C90.0376 58.436 90.2543 58.384 90.4536 58.384C90.7223 58.384 90.9303 58.449 91.0776 58.579C91.225 58.7003 91.329 58.8737 91.3896 59.099C91.459 59.3157 91.4936 59.5713 91.4936 59.866V64H92.5206V59.723C92.5206 59.2983 92.4556 58.9213 92.3256 58.592C92.1956 58.254 91.9876 57.9897 91.7016 57.799C91.4243 57.5997 91.0646 57.5 90.6226 57.5C90.38 57.5 90.1156 57.5477 89.8296 57.643C89.5523 57.7383 89.2836 57.8683 89.0236 58.033C88.7723 58.1977 88.547 58.384 88.3476 58.592L88.4386 59.528ZM94.8783 62.206C94.8783 61.8767 94.9866 61.5907 95.2033 61.348C95.4286 61.0967 95.7536 60.971 96.1783 60.971H97.8293V62.414C97.6126 62.6653 97.3526 62.882 97.0493 63.064C96.746 63.246 96.4123 63.337 96.0483 63.337C95.7796 63.337 95.5586 63.2807 95.3853 63.168C95.212 63.0553 95.082 62.9123 94.9953 62.739C94.9173 62.557 94.8783 62.3793 94.8783 62.206ZM94.6313 58.852C94.8653 58.7567 95.121 58.6613 95.3983 58.566C95.6843 58.4707 96.031 58.423 96.4383 58.423C96.941 58.423 97.2963 58.566 97.5043 58.852C97.721 59.138 97.8293 59.4977 97.8293 59.931V60.282H96.2043C95.5283 60.282 94.978 60.451 94.5533 60.789C94.1286 61.1183 93.9163 61.5907 93.9163 62.206C93.9163 62.7607 94.094 63.2243 94.4493 63.597C94.8046 63.9697 95.3506 64.156 96.0873 64.156C96.434 64.156 96.7806 64.0737 97.1273 63.909C97.4826 63.7443 97.76 63.5623 97.9593 63.363L98.0893 64H98.8693V59.658C98.8693 59.242 98.7653 58.8737 98.5573 58.553C98.3493 58.2323 98.059 57.981 97.6863 57.799C97.3223 57.617 96.8976 57.526 96.4123 57.526C96.239 57.526 96.018 57.552 95.7493 57.604C95.4806 57.6473 95.2163 57.7123 94.9563 57.799C94.705 57.877 94.497 57.9723 94.3323 58.085L94.6313 58.852ZM101.486 64V57.695H100.446V64H101.486ZM100.953 56.447C101.144 56.447 101.308 56.382 101.447 56.252C101.586 56.1133 101.655 55.9443 101.655 55.745C101.655 55.5457 101.581 55.381 101.434 55.251C101.295 55.1123 101.131 55.043 100.94 55.043C100.741 55.043 100.576 55.1123 100.446 55.251C100.316 55.381 100.251 55.5457 100.251 55.745C100.251 55.9443 100.316 56.1133 100.446 56.252C100.576 56.382 100.745 56.447 100.953 56.447ZM104.126 64V59.528C104.334 59.3113 104.559 59.1207 104.802 58.956C105.045 58.7827 105.292 58.644 105.543 58.54C105.803 58.436 106.037 58.384 106.245 58.384C106.678 58.384 106.973 58.5227 107.129 58.8C107.294 59.0773 107.376 59.4327 107.376 59.866V64H108.403V59.736C108.403 59.3027 108.334 58.9213 108.195 58.592C108.056 58.254 107.84 57.9897 107.545 57.799C107.259 57.5997 106.886 57.5 106.427 57.5C106.15 57.5 105.864 57.5477 105.569 57.643C105.274 57.7383 104.997 57.8683 104.737 58.033C104.477 58.1977 104.247 58.384 104.048 58.592L103.866 57.695H103.112V64H104.126ZM113.807 62.206C113.807 61.8767 113.915 61.5907 114.132 61.348C114.357 61.0967 114.682 60.971 115.107 60.971H116.758V62.414C116.541 62.6653 116.281 62.882 115.978 63.064C115.675 63.246 115.341 63.337 114.977 63.337C114.708 63.337 114.487 63.2807 114.314 63.168C114.141 63.0553 114.011 62.9123 113.924 62.739C113.846 62.557 113.807 62.3793 113.807 62.206ZM113.56 58.852C113.794 58.7567 114.05 58.6613 114.327 58.566C114.613 58.4707 114.96 58.423 115.367 58.423C115.87 58.423 116.225 58.566 116.433 58.852C116.65 59.138 116.758 59.4977 116.758 59.931V60.282H115.133C114.457 60.282 113.907 60.451 113.482 60.789C113.057 61.1183 112.845 61.5907 112.845 62.206C112.845 62.7607 113.023 63.2243 113.378 63.597C113.733 63.9697 114.279 64.156 115.016 64.156C115.363 64.156 115.709 64.0737 116.056 63.909C116.411 63.7443 116.689 63.5623 116.888 63.363L117.018 64H117.798V59.658C117.798 59.242 117.694 58.8737 117.486 58.553C117.278 58.2323 116.988 57.981 116.615 57.799C116.251 57.617 115.826 57.526 115.341 57.526C115.168 57.526 114.947 57.552 114.678 57.604C114.409 57.6473 114.145 57.7123 113.885 57.799C113.634 57.877 113.426 57.9723 113.261 58.085L113.56 58.852ZM120.389 64V59.528C120.597 59.3113 120.822 59.1207 121.065 58.956C121.307 58.7827 121.554 58.644 121.806 58.54C122.066 58.436 122.3 58.384 122.508 58.384C122.941 58.384 123.236 58.5227 123.392 58.8C123.556 59.0773 123.639 59.4327 123.639 59.866V64H124.666V59.736C124.666 59.3027 124.596 58.9213 124.458 58.592C124.319 58.254 124.102 57.9897 123.808 57.799C123.522 57.5997 123.149 57.5 122.69 57.5C122.412 57.5 122.126 57.5477 121.832 57.643C121.537 57.7383 121.26 57.8683 121 58.033C120.74 58.1977 120.51 58.384 120.311 58.592L120.129 57.695H119.375V64H120.389ZM127.036 62.206C127.036 61.8767 127.144 61.5907 127.361 61.348C127.586 61.0967 127.911 60.971 128.336 60.971H129.987V62.414C129.77 62.6653 129.51 62.882 129.207 63.064C128.903 63.246 128.57 63.337 128.206 63.337C127.937 63.337 127.716 63.2807 127.543 63.168C127.369 63.0553 127.239 62.9123 127.153 62.739C127.075 62.557 127.036 62.3793 127.036 62.206ZM126.789 58.852C127.023 58.7567 127.278 58.6613 127.556 58.566C127.842 58.4707 128.188 58.423 128.596 58.423C129.098 58.423 129.454 58.566 129.662 58.852C129.878 59.138 129.987 59.4977 129.987 59.931V60.282H128.362C127.686 60.282 127.135 60.451 126.711 60.789C126.286 61.1183 126.074 61.5907 126.074 62.206C126.074 62.7607 126.251 63.2243 126.607 63.597C126.962 63.9697 127.508 64.156 128.245 64.156C128.591 64.156 128.938 64.0737 129.285 63.909C129.64 63.7443 129.917 63.5623 130.117 63.363L130.247 64H131.027V59.658C131.027 59.242 130.923 58.8737 130.715 58.553C130.507 58.2323 130.216 57.981 129.844 57.799C129.48 57.617 129.055 57.526 128.57 57.526C128.396 57.526 128.175 57.552 127.907 57.604C127.638 57.6473 127.374 57.7123 127.114 57.799C126.862 57.877 126.654 57.9723 126.49 58.085L126.789 58.852ZM133.747 64V54.822L132.733 54.965V64H133.747ZM136.758 65.027C136.689 65.2177 136.589 65.378 136.459 65.508C136.329 65.638 136.178 65.7463 136.004 65.833C135.831 65.9283 135.64 66.0237 135.432 66.119L135.744 66.86C136.048 66.7907 136.329 66.6823 136.589 66.535C136.849 66.3963 137.075 66.2187 137.265 66.002C137.465 65.794 137.612 65.56 137.707 65.3L140.476 57.695H139.449L137.642 62.57L135.731 57.5L134.821 57.89L137.161 63.961L136.758 65.027ZM141.101 63.636C141.275 63.7487 141.483 63.844 141.725 63.922C141.968 64 142.215 64.0607 142.466 64.104C142.726 64.1473 142.943 64.169 143.116 64.169C143.94 64.169 144.564 64.0087 144.988 63.688C145.422 63.3587 145.638 62.908 145.638 62.336C145.638 61.9893 145.534 61.6903 145.326 61.439C145.118 61.1877 144.854 60.971 144.533 60.789C144.213 60.607 143.879 60.4597 143.532 60.347C143.116 60.2083 142.77 60.0567 142.492 59.892C142.215 59.7187 142.072 59.515 142.063 59.281C142.063 59.0123 142.185 58.7913 142.427 58.618C142.679 58.4447 142.999 58.358 143.389 58.358C143.753 58.358 144.07 58.4057 144.338 58.501C144.607 58.5963 144.845 58.696 145.053 58.8L145.378 58.085C145.222 57.9723 145.023 57.877 144.78 57.799C144.538 57.7123 144.291 57.6473 144.039 57.604C143.797 57.552 143.584 57.526 143.402 57.526C142.683 57.526 142.111 57.6863 141.686 58.007C141.262 58.319 141.049 58.7567 141.049 59.32C141.049 59.6493 141.153 59.9353 141.361 60.178C141.569 60.412 141.829 60.6113 142.141 60.776C142.462 60.932 142.787 61.0663 143.116 61.179C143.402 61.2743 143.662 61.3827 143.896 61.504C144.13 61.6167 144.317 61.7467 144.455 61.894C144.603 62.0413 144.676 62.2103 144.676 62.401C144.676 62.5917 144.611 62.7607 144.481 62.908C144.351 63.0467 144.169 63.155 143.935 63.233C143.71 63.3023 143.441 63.337 143.129 63.337C142.93 63.337 142.731 63.3197 142.531 63.285C142.332 63.2417 142.137 63.1897 141.946 63.129C141.764 63.0597 141.587 62.986 141.413 62.908L141.101 63.636ZM147.925 64V57.695H146.885V64H147.925ZM147.392 56.447C147.583 56.447 147.748 56.382 147.886 56.252C148.025 56.1133 148.094 55.9443 148.094 55.745C148.094 55.5457 148.021 55.381 147.873 55.251C147.735 55.1123 147.57 55.043 147.379 55.043C147.18 55.043 147.015 55.1123 146.885 55.251C146.755 55.381 146.69 55.5457 146.69 55.745C146.69 55.9443 146.755 56.1133 146.885 56.252C147.015 56.382 147.184 56.447 147.392 56.447ZM149.226 63.636C149.4 63.7487 149.608 63.844 149.85 63.922C150.093 64 150.34 64.0607 150.591 64.104C150.851 64.1473 151.068 64.169 151.241 64.169C152.065 64.169 152.689 64.0087 153.113 63.688C153.547 63.3587 153.763 62.908 153.763 62.336C153.763 61.9893 153.659 61.6903 153.451 61.439C153.243 61.1877 152.979 60.971 152.658 60.789C152.338 60.607 152.004 60.4597 151.657 60.347C151.241 60.2083 150.895 60.0567 150.617 59.892C150.34 59.7187 150.197 59.515 150.188 59.281C150.188 59.0123 150.31 58.7913 150.552 58.618C150.804 58.4447 151.124 58.358 151.514 58.358C151.878 58.358 152.195 58.4057 152.463 58.501C152.732 58.5963 152.97 58.696 153.178 58.8L153.503 58.085C153.347 57.9723 153.148 57.877 152.905 57.799C152.663 57.7123 152.416 57.6473 152.164 57.604C151.922 57.552 151.709 57.526 151.527 57.526C150.808 57.526 150.236 57.6863 149.811 58.007C149.387 58.319 149.174 58.7567 149.174 59.32C149.174 59.6493 149.278 59.9353 149.486 60.178C149.694 60.412 149.954 60.6113 150.266 60.776C150.587 60.932 150.912 61.0663 151.241 61.179C151.527 61.2743 151.787 61.3827 152.021 61.504C152.255 61.6167 152.442 61.7467 152.58 61.894C152.728 62.0413 152.801 62.2103 152.801 62.401C152.801 62.5917 152.736 62.7607 152.606 62.908C152.476 63.0467 152.294 63.155 152.06 63.233C151.835 63.3023 151.566 63.337 151.254 63.337C151.055 63.337 150.856 63.3197 150.656 63.285C150.457 63.2417 150.262 63.1897 150.071 63.129C149.889 63.0597 149.712 62.986 149.538 62.908L149.226 63.636Z" fill="#C4C4C4"/>
<defs>
<linearGradient id="paint0_linear_837_264" x1="93" y1="23.5" x2="93" y2="44" gradientUnits="userSpaceOnUse">
<stop stop-color="#0694A2"/>
<stop offset="1" stop-color="#FCD34D"/>
</linearGradient>
</defs>
</svg>
