<svg width="965" height="587" viewBox="0 0 965 587" fill="none" xmlns="http://www.w3.org/2000/svg">
<g filter="url(#filter0_i_910_243)">
<rect width="965" height="587" rx="10" fill="#F6F6F6"/>
</g>
<path d="M925 36L905 56M925 56L905 36L925 56Z" stroke="#328681" stroke-width="5" stroke-linecap="round" stroke-linejoin="round"/>
<rect x="182" y="340" width="600" height="20" rx="10" fill="#80B4AB"/>
<rect x="182" y="340" width="400" height="20" rx="10" fill="#579B8F"/>
<path d="M355.552 414L365.308 392.076H352.204V388.8H369.232V391.572L359.548 414H355.552ZM381.603 414.432C379.755 414.432 378.195 414.084 376.923 413.388C375.651 412.692 374.619 411.768 373.827 410.616C373.059 409.464 372.507 408.168 372.171 406.728C371.835 405.288 371.667 403.812 371.667 402.3C371.667 399.516 372.051 397.08 372.819 394.992C373.611 392.904 374.739 391.284 376.203 390.132C377.667 388.956 379.443 388.368 381.531 388.368C383.187 388.368 384.603 388.692 385.779 389.34C386.955 389.988 387.867 390.852 388.515 391.932C389.187 393.012 389.595 394.188 389.739 395.46H386.175C385.959 394.212 385.443 393.252 384.627 392.58C383.811 391.908 382.767 391.572 381.495 391.572C379.743 391.572 378.291 392.4 377.139 394.056C376.011 395.688 375.411 398.208 375.339 401.616C375.915 400.56 376.803 399.66 378.003 398.916C379.227 398.172 380.631 397.8 382.215 397.8C383.631 397.8 384.951 398.136 386.175 398.808C387.423 399.48 388.431 400.428 389.199 401.652C389.991 402.852 390.387 404.28 390.387 405.936C390.387 407.4 390.027 408.78 389.307 410.076C388.587 411.372 387.567 412.428 386.247 413.244C384.951 414.036 383.403 414.432 381.603 414.432ZM381.387 411.12C382.395 411.12 383.295 410.904 384.087 410.472C384.879 410.04 385.503 409.452 385.959 408.708C386.415 407.94 386.643 407.076 386.643 406.116C386.643 404.58 386.139 403.356 385.131 402.444C384.147 401.532 382.887 401.076 381.351 401.076C380.343 401.076 379.431 401.304 378.615 401.76C377.823 402.216 377.199 402.828 376.743 403.596C376.287 404.34 376.059 405.168 376.059 406.08C376.059 407.064 376.287 407.94 376.743 408.708C377.223 409.452 377.859 410.04 378.651 410.472C379.467 410.904 380.379 411.12 381.387 411.12ZM399.5 400.824C398.372 400.824 397.352 400.572 396.44 400.068C395.552 399.564 394.844 398.856 394.316 397.944C393.788 397.008 393.524 395.892 393.524 394.596C393.524 393.324 393.788 392.232 394.316 391.32C394.844 390.384 395.564 389.664 396.476 389.16C397.388 388.656 398.408 388.404 399.536 388.404C400.64 388.404 401.636 388.656 402.524 389.16C403.436 389.664 404.156 390.384 404.684 391.32C405.212 392.232 405.476 393.324 405.476 394.596C405.476 395.892 405.212 397.008 404.684 397.944C404.156 398.856 403.436 399.564 402.524 400.068C401.636 400.572 400.628 400.824 399.5 400.824ZM397.7 414L412.136 388.8H415.88L401.48 414H397.7ZM399.5 398.088C400.268 398.088 400.928 397.8 401.48 397.224C402.056 396.624 402.344 395.748 402.344 394.596C402.344 393.444 402.068 392.58 401.516 392.004C400.964 391.404 400.292 391.104 399.5 391.104C398.732 391.104 398.06 391.404 397.484 392.004C396.908 392.58 396.62 393.444 396.62 394.596C396.62 395.748 396.896 396.624 397.448 397.224C398.024 397.8 398.708 398.088 399.5 398.088ZM414.296 414.432C413.168 414.432 412.148 414.18 411.236 413.676C410.348 413.172 409.64 412.464 409.112 411.552C408.584 410.616 408.32 409.5 408.32 408.204C408.32 406.932 408.584 405.828 409.112 404.892C409.64 403.956 410.36 403.236 411.272 402.732C412.184 402.228 413.204 401.976 414.332 401.976C415.436 401.976 416.432 402.228 417.32 402.732C418.232 403.236 418.952 403.956 419.48 404.892C420.008 405.828 420.272 406.932 420.272 408.204C420.272 409.5 420.008 410.616 419.48 411.552C418.952 412.464 418.232 413.172 417.32 413.676C416.432 414.18 415.424 414.432 414.296 414.432ZM414.296 411.66C415.064 411.66 415.724 411.372 416.276 410.796C416.852 410.22 417.14 409.356 417.14 408.204C417.14 407.052 416.864 406.188 416.312 405.612C415.76 405.012 415.088 404.712 414.296 404.712C413.528 404.712 412.856 405.012 412.28 405.612C411.704 406.188 411.416 407.052 411.416 408.204C411.416 409.356 411.692 410.22 412.244 410.796C412.82 411.372 413.504 411.66 414.296 411.66ZM441.663 414.432C439.911 414.432 438.339 414.036 436.947 413.244C435.579 412.452 434.499 411.36 433.707 409.968C432.939 408.552 432.555 406.92 432.555 405.072C432.555 403.224 432.939 401.604 433.707 400.212C434.499 398.796 435.579 397.692 436.947 396.9C438.339 396.108 439.911 395.712 441.663 395.712C443.871 395.712 445.719 396.288 447.207 397.44C448.719 398.592 449.691 400.152 450.123 402.12H446.127C445.887 401.136 445.359 400.368 444.543 399.816C443.727 399.264 442.767 398.988 441.663 398.988C440.727 398.988 439.863 399.228 439.071 399.708C438.279 400.164 437.643 400.848 437.163 401.76C436.683 402.648 436.443 403.752 436.443 405.072C436.443 406.392 436.683 407.508 437.163 408.42C437.643 409.308 438.279 409.992 439.071 410.472C439.863 410.952 440.727 411.192 441.663 411.192C442.767 411.192 443.727 410.916 444.543 410.364C445.359 409.812 445.887 409.032 446.127 408.024H450.123C449.715 409.944 448.755 411.492 447.243 412.668C445.731 413.844 443.871 414.432 441.663 414.432ZM462.614 414.432C460.91 414.432 459.374 414.048 458.006 413.28C456.662 412.488 455.594 411.396 454.802 410.004C454.01 408.588 453.614 406.944 453.614 405.072C453.614 403.2 454.01 401.568 454.802 400.176C455.618 398.76 456.71 397.668 458.078 396.9C459.446 396.108 460.97 395.712 462.65 395.712C464.354 395.712 465.878 396.108 467.222 396.9C468.59 397.668 469.67 398.76 470.462 400.176C471.278 401.568 471.686 403.2 471.686 405.072C471.686 406.944 471.278 408.588 470.462 410.004C469.67 411.396 468.59 412.488 467.222 413.28C465.854 414.048 464.318 414.432 462.614 414.432ZM462.614 411.156C463.526 411.156 464.366 410.928 465.134 410.472C465.926 410.016 466.562 409.344 467.042 408.456C467.522 407.544 467.762 406.416 467.762 405.072C467.762 403.728 467.522 402.612 467.042 401.724C466.586 400.812 465.962 400.128 465.17 399.672C464.402 399.216 463.562 398.988 462.65 398.988C461.738 398.988 460.886 399.216 460.094 399.672C459.326 400.128 458.702 400.812 458.222 401.724C457.742 402.612 457.502 403.728 457.502 405.072C457.502 406.416 457.742 407.544 458.222 408.456C458.702 409.344 459.326 410.016 460.094 410.472C460.862 410.928 461.702 411.156 462.614 411.156ZM475.812 414V396.144H479.196L479.52 398.664C480.096 397.752 480.852 397.032 481.788 396.504C482.748 395.976 483.852 395.712 485.1 395.712C487.932 395.712 489.9 396.828 491.004 399.06C491.652 398.028 492.516 397.212 493.596 396.612C494.7 396.012 495.888 395.712 497.16 395.712C499.392 395.712 501.144 396.384 502.416 397.728C503.688 399.072 504.324 401.076 504.324 403.74V414H500.508V404.136C500.508 400.68 499.188 398.952 496.548 398.952C495.204 398.952 494.1 399.456 493.236 400.464C492.396 401.472 491.976 402.912 491.976 404.784V414H488.16V404.136C488.16 400.68 486.828 398.952 484.164 398.952C482.844 398.952 481.752 399.456 480.888 400.464C480.048 401.472 479.628 402.912 479.628 404.784V414H475.812ZM508.789 421.92V396.144H512.209L512.605 398.916C513.181 398.076 513.973 397.332 514.981 396.684C515.989 396.036 517.285 395.712 518.869 395.712C520.597 395.712 522.121 396.12 523.441 396.936C524.761 397.752 525.793 398.868 526.537 400.284C527.305 401.7 527.689 403.308 527.689 405.108C527.689 406.908 527.305 408.516 526.537 409.932C525.793 411.324 524.761 412.428 523.441 413.244C522.121 414.036 520.585 414.432 518.833 414.432C517.441 414.432 516.205 414.156 515.125 413.604C514.069 413.052 513.229 412.272 512.605 411.264V421.92H508.789ZM518.185 411.12C519.817 411.12 521.161 410.568 522.217 409.464C523.273 408.336 523.801 406.872 523.801 405.072C523.801 403.896 523.561 402.852 523.081 401.94C522.601 401.028 521.941 400.32 521.101 399.816C520.261 399.288 519.289 399.024 518.185 399.024C516.553 399.024 515.209 399.588 514.153 400.716C513.121 401.844 512.605 403.296 512.605 405.072C512.605 406.872 513.121 408.336 514.153 409.464C515.209 410.568 516.553 411.12 518.185 411.12ZM531.816 414V388.08H535.632V414H531.816ZM548.817 414.432C547.065 414.432 545.505 414.048 544.137 413.28C542.793 412.488 541.737 411.396 540.969 410.004C540.201 408.612 539.817 406.992 539.817 405.144C539.817 403.272 540.189 401.628 540.933 400.212C541.701 398.796 542.757 397.692 544.101 396.9C545.469 396.108 547.053 395.712 548.853 395.712C550.605 395.712 552.129 396.108 553.425 396.9C554.721 397.668 555.729 398.7 556.449 399.996C557.169 401.292 557.529 402.72 557.529 404.28C557.529 404.52 557.517 404.784 557.493 405.072C557.493 405.336 557.481 405.636 557.457 405.972H543.561C543.681 407.7 544.245 409.02 545.253 409.932C546.285 410.82 547.473 411.264 548.817 411.264C549.897 411.264 550.797 411.024 551.517 410.544C552.261 410.04 552.813 409.368 553.173 408.528H556.989C556.509 410.208 555.549 411.612 554.109 412.74C552.693 413.868 550.929 414.432 548.817 414.432ZM548.817 398.844C547.545 398.844 546.417 399.228 545.433 399.996C544.449 400.74 543.849 401.868 543.633 403.38H553.713C553.641 401.988 553.149 400.884 552.237 400.068C551.325 399.252 550.185 398.844 548.817 398.844ZM568.519 414C566.767 414 565.375 413.58 564.343 412.74C563.311 411.876 562.795 410.352 562.795 408.168V399.348H559.735V396.144H562.795L563.263 391.608H566.611V396.144H571.651V399.348H566.611V408.168C566.611 409.152 566.815 409.836 567.223 410.22C567.655 410.58 568.387 410.76 569.419 410.76H571.471V414H568.519ZM583.481 414.432C581.729 414.432 580.169 414.048 578.801 413.28C577.457 412.488 576.401 411.396 575.633 410.004C574.865 408.612 574.481 406.992 574.481 405.144C574.481 403.272 574.853 401.628 575.597 400.212C576.365 398.796 577.421 397.692 578.765 396.9C580.133 396.108 581.717 395.712 583.517 395.712C585.269 395.712 586.793 396.108 588.089 396.9C589.385 397.668 590.393 398.7 591.113 399.996C591.833 401.292 592.193 402.72 592.193 404.28C592.193 404.52 592.181 404.784 592.157 405.072C592.157 405.336 592.145 405.636 592.121 405.972H578.225C578.345 407.7 578.909 409.02 579.917 409.932C580.949 410.82 582.137 411.264 583.481 411.264C584.561 411.264 585.461 411.024 586.181 410.544C586.925 410.04 587.477 409.368 587.837 408.528H591.653C591.173 410.208 590.213 411.612 588.773 412.74C587.357 413.868 585.593 414.432 583.481 414.432ZM583.481 398.844C582.209 398.844 581.081 399.228 580.097 399.996C579.113 400.74 578.513 401.868 578.297 403.38H588.377C588.305 401.988 587.813 400.884 586.901 400.068C585.989 399.252 584.849 398.844 583.481 398.844ZM604.288 414.432C602.56 414.432 601.036 414.024 599.716 413.208C598.396 412.392 597.364 411.276 596.62 409.86C595.876 408.444 595.504 406.836 595.504 405.036C595.504 403.236 595.876 401.64 596.62 400.248C597.364 398.832 598.396 397.728 599.716 396.936C601.06 396.12 602.596 395.712 604.324 395.712C605.74 395.712 606.976 395.988 608.032 396.54C609.112 397.092 609.952 397.872 610.552 398.88V388.08H614.368V414H610.948L610.552 411.228C609.976 412.068 609.184 412.812 608.176 413.46C607.168 414.108 605.872 414.432 604.288 414.432ZM604.972 411.12C606.604 411.12 607.936 410.556 608.968 409.428C610.024 408.3 610.552 406.848 610.552 405.072C610.552 403.272 610.024 401.82 608.968 400.716C607.936 399.588 606.604 399.024 604.972 399.024C603.34 399.024 601.996 399.588 600.94 400.716C599.884 401.82 599.356 403.272 599.356 405.072C599.356 406.248 599.596 407.292 600.076 408.204C600.556 409.116 601.216 409.836 602.056 410.364C602.92 410.868 603.892 411.12 604.972 411.12Z" fill="#80B4AB"/>
<path d="M381.646 278.152C376.91 278.152 372.814 277.32 369.358 275.656C365.902 273.928 363.15 271.592 361.102 268.648C359.118 265.64 357.902 262.248 357.454 258.472H367.438C368.078 261.672 369.678 264.328 372.238 266.44C374.798 268.488 377.966 269.512 381.742 269.512C384.558 269.512 386.99 268.84 389.038 267.496C391.086 266.088 392.686 264.232 393.838 261.928C394.99 259.624 395.566 257.032 395.566 254.152C395.566 249.608 394.286 245.992 391.726 243.304C389.166 240.552 385.934 239.176 382.03 239.176C378.702 239.176 375.854 239.976 373.486 241.576C371.118 243.112 369.39 245.064 368.302 247.432H358.606L364.366 209.8H400.654V218.728H372.046L368.59 236.68C370.062 235.016 372.078 233.64 374.638 232.552C377.262 231.4 380.206 230.824 383.47 230.824C388.014 230.824 391.918 231.88 395.182 233.992C398.446 236.04 400.942 238.824 402.67 242.344C404.462 245.864 405.358 249.768 405.358 254.056C405.358 258.536 404.398 262.6 402.478 266.248C400.558 269.896 397.806 272.808 394.222 274.984C390.702 277.096 386.51 278.152 381.646 278.152ZM444.259 278.152C438.179 278.152 432.931 276.712 428.515 273.832C424.163 270.888 420.803 266.824 418.435 261.64C416.131 256.392 414.979 250.312 414.979 243.4C414.979 236.488 416.131 230.44 418.435 225.256C420.803 220.008 424.163 215.944 428.515 213.064C432.931 210.12 438.179 208.648 444.259 208.648C450.339 208.648 455.555 210.12 459.906 213.064C464.259 215.944 467.587 220.008 469.891 225.256C472.259 230.44 473.443 236.488 473.443 243.4C473.443 250.312 472.259 256.392 469.891 261.64C467.587 266.824 464.259 270.888 459.906 273.832C455.555 276.712 450.339 278.152 444.259 278.152ZM444.259 269.032C447.907 269.032 451.139 268.008 453.955 265.96C456.835 263.912 459.075 260.968 460.675 257.128C462.275 253.288 463.075 248.712 463.075 243.4C463.075 238.088 462.275 233.512 460.675 229.672C459.075 225.832 456.835 222.888 453.955 220.84C451.139 218.792 447.907 217.768 444.259 217.768C440.547 217.768 437.283 218.792 434.467 220.84C431.651 222.888 429.443 225.832 427.843 229.672C426.243 233.512 425.443 238.088 425.443 243.4C425.443 248.712 426.243 253.288 427.843 257.128C429.443 260.968 431.651 263.912 434.467 265.96C437.283 268.008 440.547 269.032 444.259 269.032ZM488.433 277.576C486.513 277.576 484.913 276.968 483.633 275.752C482.417 274.472 481.809 272.968 481.809 271.24C481.809 269.448 482.417 267.944 483.633 266.728C484.913 265.448 486.513 264.808 488.433 264.808C490.353 264.808 491.921 265.448 493.137 266.728C494.353 267.944 494.961 269.448 494.961 271.24C494.961 272.968 494.353 274.472 493.137 275.752C491.921 276.968 490.353 277.576 488.433 277.576ZM488.433 241C486.513 241 484.913 240.392 483.633 239.176C482.417 237.896 481.809 236.392 481.809 234.664C481.809 232.872 482.417 231.368 483.633 230.152C484.913 228.872 486.513 228.232 488.433 228.232C490.353 228.232 491.921 228.872 493.137 230.152C494.353 231.368 494.961 232.872 494.961 234.664C494.961 236.392 494.353 237.896 493.137 239.176C491.921 240.392 490.353 241 488.433 241ZM532.759 278.152C526.679 278.152 521.431 276.712 517.015 273.832C512.663 270.888 509.303 266.824 506.935 261.64C504.631 256.392 503.479 250.312 503.479 243.4C503.479 236.488 504.631 230.44 506.935 225.256C509.303 220.008 512.663 215.944 517.015 213.064C521.431 210.12 526.679 208.648 532.759 208.648C538.839 208.648 544.055 210.12 548.406 213.064C552.759 215.944 556.087 220.008 558.391 225.256C560.759 230.44 561.943 236.488 561.943 243.4C561.943 250.312 560.759 256.392 558.391 261.64C556.087 266.824 552.759 270.888 548.406 273.832C544.055 276.712 538.839 278.152 532.759 278.152ZM532.759 269.032C536.407 269.032 539.639 268.008 542.455 265.96C545.335 263.912 547.575 260.968 549.175 257.128C550.775 253.288 551.575 248.712 551.575 243.4C551.575 238.088 550.775 233.512 549.175 229.672C547.575 225.832 545.335 222.888 542.455 220.84C539.639 218.792 536.407 217.768 532.759 217.768C529.047 217.768 525.783 218.792 522.967 220.84C520.151 222.888 517.943 225.832 516.343 229.672C514.743 233.512 513.943 238.088 513.943 243.4C513.943 248.712 514.743 253.288 516.343 257.128C517.943 260.968 520.151 263.912 522.967 265.96C525.783 268.008 529.047 269.032 532.759 269.032ZM580.197 277V221.32L569.349 223.816V216.328L584.229 209.8H590.757V277H580.197Z" fill="#328681"/>
<path d="M189.598 136V116.352H182.974V113.6H199.582V116.352H192.99V136H189.598ZM202.628 136V112.96H206.02V122.688C206.554 121.771 207.29 121.056 208.228 120.544C209.188 120.011 210.244 119.744 211.396 119.744C213.295 119.744 214.788 120.341 215.876 121.536C216.964 122.731 217.508 124.512 217.508 126.88V136H214.148V127.232C214.148 124.16 212.922 122.624 210.468 122.624C209.188 122.624 208.122 123.072 207.268 123.968C206.436 124.864 206.02 126.144 206.02 127.808V136H202.628ZM228.927 136.384C227.37 136.384 225.983 136.043 224.767 135.36C223.573 134.656 222.634 133.685 221.951 132.448C221.269 131.211 220.927 129.771 220.927 128.128C220.927 126.464 221.258 125.003 221.919 123.744C222.602 122.485 223.541 121.504 224.735 120.8C225.951 120.096 227.359 119.744 228.959 119.744C230.517 119.744 231.871 120.096 233.023 120.8C234.175 121.483 235.071 122.4 235.711 123.552C236.351 124.704 236.671 125.973 236.671 127.36C236.671 127.573 236.661 127.808 236.639 128.064C236.639 128.299 236.629 128.565 236.607 128.864H224.255C224.362 130.4 224.863 131.573 225.759 132.384C226.677 133.173 227.733 133.568 228.927 133.568C229.887 133.568 230.687 133.355 231.327 132.928C231.989 132.48 232.479 131.883 232.799 131.136H236.191C235.765 132.629 234.911 133.877 233.631 134.88C232.373 135.883 230.805 136.384 228.927 136.384ZM228.927 122.528C227.797 122.528 226.794 122.869 225.919 123.552C225.045 124.213 224.511 125.216 224.319 126.56H233.279C233.215 125.323 232.778 124.341 231.967 123.616C231.157 122.891 230.143 122.528 228.927 122.528ZM248.381 136V113.6H256.093C257.864 113.6 259.315 113.899 260.445 114.496C261.597 115.093 262.451 115.904 263.005 116.928C263.56 117.931 263.837 119.051 263.837 120.288C263.837 121.675 263.464 122.933 262.717 124.064C261.992 125.195 260.851 126.005 259.293 126.496L264.061 136H260.125L255.773 126.976H251.773V136H248.381ZM251.773 124.416H255.901C257.437 124.416 258.557 124.043 259.261 123.296C259.987 122.549 260.349 121.579 260.349 120.384C260.349 119.189 259.997 118.24 259.293 117.536C258.589 116.811 257.448 116.448 255.869 116.448H251.773V124.416ZM274.177 136.384C272.62 136.384 271.233 136.043 270.017 135.36C268.823 134.656 267.884 133.685 267.201 132.448C266.519 131.211 266.177 129.771 266.177 128.128C266.177 126.464 266.508 125.003 267.169 123.744C267.852 122.485 268.791 121.504 269.985 120.8C271.201 120.096 272.609 119.744 274.209 119.744C275.767 119.744 277.121 120.096 278.273 120.8C279.425 121.483 280.321 122.4 280.961 123.552C281.601 124.704 281.921 125.973 281.921 127.36C281.921 127.573 281.911 127.808 281.889 128.064C281.889 128.299 281.879 128.565 281.857 128.864H269.505C269.612 130.4 270.113 131.573 271.009 132.384C271.927 133.173 272.983 133.568 274.177 133.568C275.137 133.568 275.937 133.355 276.577 132.928C277.239 132.48 277.729 131.883 278.049 131.136H281.441C281.015 132.629 280.161 133.877 278.881 134.88C277.623 135.883 276.055 136.384 274.177 136.384ZM274.177 122.528C273.047 122.528 272.044 122.869 271.169 123.552C270.295 124.213 269.761 125.216 269.569 126.56H278.529C278.465 125.323 278.028 124.341 277.217 123.616C276.407 122.891 275.393 122.528 274.177 122.528ZM285.441 136V120.128H288.449L288.737 122.368C289.249 121.557 289.921 120.917 290.753 120.448C291.606 119.979 292.588 119.744 293.697 119.744C296.214 119.744 297.964 120.736 298.945 122.72C299.521 121.803 300.289 121.077 301.249 120.544C302.23 120.011 303.286 119.744 304.417 119.744C306.401 119.744 307.958 120.341 309.089 121.536C310.22 122.731 310.785 124.512 310.785 126.88V136H307.393V127.232C307.393 124.16 306.22 122.624 303.873 122.624C302.678 122.624 301.697 123.072 300.929 123.968C300.182 124.864 299.809 126.144 299.809 127.808V136H296.417V127.232C296.417 124.16 295.233 122.624 292.865 122.624C291.692 122.624 290.721 123.072 289.953 123.968C289.206 124.864 288.833 126.144 288.833 127.808V136H285.441ZM320.129 136.384C318.785 136.384 317.676 136.16 316.801 135.712C315.927 135.264 315.276 134.677 314.849 133.952C314.423 133.205 314.209 132.395 314.209 131.52C314.209 129.984 314.807 128.768 316.001 127.872C317.196 126.976 318.903 126.528 321.121 126.528H325.281V126.24C325.281 125.003 324.94 124.075 324.257 123.456C323.596 122.837 322.732 122.528 321.665 122.528C320.727 122.528 319.905 122.763 319.201 123.232C318.519 123.68 318.103 124.352 317.953 125.248H314.561C314.668 124.096 315.052 123.115 315.713 122.304C316.396 121.472 317.249 120.843 318.273 120.416C319.319 119.968 320.46 119.744 321.697 119.744C323.916 119.744 325.633 120.331 326.849 121.504C328.065 122.656 328.673 124.235 328.673 126.24V136H325.729L325.441 133.28C324.993 134.155 324.343 134.891 323.489 135.488C322.636 136.085 321.516 136.384 320.129 136.384ZM320.801 133.632C321.719 133.632 322.487 133.419 323.105 132.992C323.745 132.544 324.236 131.957 324.577 131.232C324.94 130.507 325.164 129.707 325.249 128.832H321.473C320.129 128.832 319.169 129.067 318.593 129.536C318.039 130.005 317.761 130.592 317.761 131.296C317.761 132.021 318.028 132.597 318.561 133.024C319.116 133.429 319.863 133.632 320.801 133.632ZM334.548 117.12C333.908 117.12 333.375 116.928 332.948 116.544C332.543 116.139 332.34 115.637 332.34 115.04C332.34 114.443 332.543 113.952 332.948 113.568C333.375 113.163 333.908 112.96 334.548 112.96C335.188 112.96 335.711 113.163 336.116 113.568C336.543 113.952 336.756 114.443 336.756 115.04C336.756 115.637 336.543 116.139 336.116 116.544C335.711 116.928 335.188 117.12 334.548 117.12ZM332.852 136V120.128H336.244V136H332.852ZM340.722 136V120.128H343.73L343.986 122.912C344.477 121.931 345.191 121.163 346.13 120.608C347.09 120.032 348.189 119.744 349.426 119.744C351.346 119.744 352.85 120.341 353.938 121.536C355.047 122.731 355.602 124.512 355.602 126.88V136H352.242V127.232C352.242 124.16 350.983 122.624 348.466 122.624C347.207 122.624 346.162 123.072 345.33 123.968C344.519 124.864 344.114 126.144 344.114 127.808V136H340.722ZM361.517 117.12C360.877 117.12 360.344 116.928 359.917 116.544C359.512 116.139 359.309 115.637 359.309 115.04C359.309 114.443 359.512 113.952 359.917 113.568C360.344 113.163 360.877 112.96 361.517 112.96C362.157 112.96 362.68 113.163 363.085 113.568C363.512 113.952 363.725 114.443 363.725 115.04C363.725 115.637 363.512 116.139 363.085 116.544C362.68 116.928 362.157 117.12 361.517 117.12ZM359.821 136V120.128H363.213V136H359.821ZM367.691 136V120.128H370.699L370.955 122.912C371.446 121.931 372.16 121.163 373.099 120.608C374.059 120.032 375.158 119.744 376.395 119.744C378.315 119.744 379.819 120.341 380.907 121.536C382.016 122.731 382.571 124.512 382.571 126.88V136H379.211V127.232C379.211 124.16 377.952 122.624 375.435 122.624C374.176 122.624 373.131 123.072 372.299 123.968C371.488 124.864 371.083 126.144 371.083 127.808V136H367.691ZM393.062 131.136C392.23 131.136 391.462 131.04 390.758 130.848L389.382 132.192C389.617 132.341 389.905 132.469 390.246 132.576C390.587 132.683 391.067 132.779 391.686 132.864C392.305 132.949 393.147 133.035 394.214 133.12C396.326 133.312 397.851 133.824 398.79 134.656C399.729 135.467 400.198 136.555 400.198 137.92C400.198 138.859 399.942 139.744 399.43 140.576C398.939 141.429 398.161 142.112 397.094 142.624C396.049 143.157 394.705 143.424 393.062 143.424C390.843 143.424 389.041 142.997 387.654 142.144C386.289 141.312 385.606 140.043 385.606 138.336C385.606 137.675 385.777 137.013 386.118 136.352C386.481 135.712 387.046 135.104 387.814 134.528C387.366 134.336 386.971 134.133 386.63 133.92C386.31 133.685 386.022 133.451 385.766 133.216V132.448L388.518 129.632C387.281 128.565 386.662 127.168 386.662 125.44C386.662 124.395 386.907 123.445 387.398 122.592C387.91 121.717 388.646 121.024 389.606 120.512C390.566 120 391.718 119.744 393.062 119.744C393.958 119.744 394.79 119.872 395.558 120.128H401.478V122.368L398.662 122.528C399.174 123.403 399.43 124.373 399.43 125.44C399.43 126.507 399.174 127.467 398.662 128.32C398.171 129.173 397.446 129.856 396.486 130.368C395.547 130.88 394.406 131.136 393.062 131.136ZM393.062 128.48C394.043 128.48 394.833 128.224 395.43 127.712C396.049 127.179 396.358 126.432 396.358 125.472C396.358 124.491 396.049 123.744 395.43 123.232C394.833 122.72 394.043 122.464 393.062 122.464C392.059 122.464 391.249 122.72 390.63 123.232C390.033 123.744 389.734 124.491 389.734 125.472C389.734 126.432 390.033 127.179 390.63 127.712C391.249 128.224 392.059 128.48 393.062 128.48ZM388.806 138.016C388.806 138.933 389.211 139.616 390.022 140.064C390.833 140.533 391.846 140.768 393.062 140.768C394.235 140.768 395.185 140.512 395.91 140C396.635 139.509 396.998 138.848 396.998 138.016C396.998 137.397 396.753 136.864 396.262 136.416C395.771 135.989 394.843 135.723 393.478 135.616C392.454 135.552 391.547 135.456 390.758 135.328C390.011 135.733 389.499 136.171 389.222 136.64C388.945 137.109 388.806 137.568 388.806 138.016ZM417.942 136V116.352H411.318V113.6H427.926V116.352H421.334V136H417.942ZM432.892 117.12C432.252 117.12 431.719 116.928 431.292 116.544C430.887 116.139 430.684 115.637 430.684 115.04C430.684 114.443 430.887 113.952 431.292 113.568C431.719 113.163 432.252 112.96 432.892 112.96C433.532 112.96 434.055 113.163 434.46 113.568C434.887 113.952 435.1 114.443 435.1 115.04C435.1 115.637 434.887 116.139 434.46 116.544C434.055 116.928 433.532 117.12 432.892 117.12ZM431.196 136V120.128H434.588V136H431.196ZM439.066 136V120.128H442.074L442.362 122.368C442.874 121.557 443.546 120.917 444.378 120.448C445.231 119.979 446.213 119.744 447.322 119.744C449.839 119.744 451.589 120.736 452.57 122.72C453.146 121.803 453.914 121.077 454.874 120.544C455.855 120.011 456.911 119.744 458.042 119.744C460.026 119.744 461.583 120.341 462.714 121.536C463.845 122.731 464.41 124.512 464.41 126.88V136H461.018V127.232C461.018 124.16 459.845 122.624 457.498 122.624C456.303 122.624 455.322 123.072 454.554 123.968C453.807 124.864 453.434 126.144 453.434 127.808V136H450.042V127.232C450.042 124.16 448.858 122.624 446.49 122.624C445.317 122.624 444.346 123.072 443.578 123.968C442.831 124.864 442.458 126.144 442.458 127.808V136H439.066ZM475.802 136.384C474.245 136.384 472.858 136.043 471.642 135.36C470.448 134.656 469.509 133.685 468.826 132.448C468.144 131.211 467.802 129.771 467.802 128.128C467.802 126.464 468.133 125.003 468.794 123.744C469.477 122.485 470.416 121.504 471.61 120.8C472.826 120.096 474.234 119.744 475.834 119.744C477.392 119.744 478.746 120.096 479.898 120.8C481.05 121.483 481.946 122.4 482.586 123.552C483.226 124.704 483.546 125.973 483.546 127.36C483.546 127.573 483.536 127.808 483.514 128.064C483.514 128.299 483.504 128.565 483.482 128.864H471.13C471.237 130.4 471.738 131.573 472.634 132.384C473.552 133.173 474.608 133.568 475.802 133.568C476.762 133.568 477.562 133.355 478.202 132.928C478.864 132.48 479.354 131.883 479.674 131.136H483.066C482.64 132.629 481.786 133.877 480.506 134.88C479.248 135.883 477.68 136.384 475.802 136.384ZM475.802 122.528C474.672 122.528 473.669 122.869 472.794 123.552C471.92 124.213 471.386 125.216 471.194 126.56H480.154C480.09 125.323 479.653 124.341 478.842 123.616C478.032 122.891 477.018 122.528 475.802 122.528Z" fill="#579B8F"/>
<defs>
<filter id="filter0_i_910_243" x="0" y="0" width="965" height="588" filterUnits="userSpaceOnUse" color-interpolation-filters="sRGB">
<feFlood flood-opacity="0" result="BackgroundImageFix"/>
<feBlend mode="normal" in="SourceGraphic" in2="BackgroundImageFix" result="shape"/>
<feColorMatrix in="SourceAlpha" type="matrix" values="0 0 0 0 0 0 0 0 0 0 0 0 0 0 0 0 0 0 127 0" result="hardAlpha"/>
<feOffset dy="1"/>
<feGaussianBlur stdDeviation="0.5"/>
<feComposite in2="hardAlpha" operator="arithmetic" k2="-1" k3="1"/>
<feColorMatrix type="matrix" values="0 0 0 0 0 0 0 0 0 0 0 0 0 0 0 0 0 0 0.2 0"/>
<feBlend mode="normal" in2="shape" result="effect1_innerShadow_910_243"/>
</filter>
</defs>
</svg>
